# xmcd
#
# Track frame offsets: 
#        150
#        15638
#        29322
#        41925
#        57058
#        72113
#        84499
#        103058
#        119824
#        133899
#        148660
#        164905
#        176167
#        191110
#        204513
#        220725
#        233900
#        248730
#        261833
#        275900
#        288378
#        305705
#        325089
#        345143
#
# Disc length: 4794 seconds
#
# Revision: 1
# Processed by: cddbd v1.5.2PL0 Copyright (c) Steve Scherf et al.
# Submitted via: ExactAudioCopy v1.1
#
DISCID=7d12b818
DTITLE=The Supremes - This Is The Story - 70's Albums - Disc 2
DYEAR=2006
DGENRE=R&B
TTITLE0=This Is The Story
TTITLE1=Nathan Jones
TTITLE2=Here Comes The Sunrise
TTITLE3=Love It Came To Me This Time
TTITLE4=Johnny Raven
TTITLE5=Have I Lost You
TTITLE6=Time And Love
TTITLE7=Touch
TTITLE8=Happy (Is A Bumpy Road)
TTITLE9=It's So Hard For Me To Say Goodbye
TTITLE10=Tears Left Over
TTITLE11=Eleanor Rigby
TTITLE12=I Ain't Got The Love Of The One I Love
TTITLE13=Can't Get You Out Of My Mind
TTITLE14=Take A Look Inside
TTITLE15=Still Water (Love)
TTITLE16=Take Your Dreams Back
TTITLE17=I Don't Want To Own You (I Just Want To Love You)
TTITLE18=Chained To Yesterday
TTITLE19=If I Were Your Woman
TTITLE20=I Ain't That Easy To Lose
TTITLE21=And I Thought You Loved You
TTITLE22=It's Too Late
TTITLE23=May His Love Shine Forever
EXTD=
EXTT0=
EXTT1=
EXTT2=
EXTT3=
EXTT4=
EXTT5=
EXTT6=
EXTT7=
EXTT8=
EXTT9=
EXTT10=
EXTT11=
EXTT12=
EXTT13=
EXTT14=
EXTT15=
EXTT16=
EXTT17=
EXTT18=
EXTT19=
EXTT20=
EXTT21=
EXTT22=
EXTT23=
PLAYORDER=
